<svg width="80" height="79" viewBox="0 0 80 79" fill="none" xmlns="http://www.w3.org/2000/svg">
<rect x="0.5" y="0.5" width="78.4361" height="77.2908" rx="9.5" stroke="white"/>
<g clip-path="url(#clip0)">
<path d="M36.0689 45.2852C36.1069 45.2904 36.1152 45.2919 36.1523 45.2967C36.7717 45.3806 37.3804 45.4918 37.8463 45.6993C38.2781 45.8893 38.5312 46.1297 38.7623 46.5582C39.1137 47.2081 39.1366 48.1184 38.8191 48.8075C38.5819 49.3201 38.0611 49.75 37.5857 49.9779C37.092 50.2164 36.6056 50.33 36.0477 50.3934C35.072 50.5005 34.0182 50.299 33.1403 49.8759C32.6208 49.6232 31.9865 49.1879 31.6666 48.6272C31.4313 48.2164 31.4388 47.682 31.725 47.2915C32.1813 46.6693 33.1586 46.5323 33.8947 46.5582C34.4559 46.5799 35.4663 46.7527 35.9992 46.9416C36.1468 46.9948 36.6915 47.2062 36.7866 47.3032C36.8535 47.3706 36.8969 47.4686 36.8668 47.5592C36.7451 47.9303 35.8402 48.1258 35.5789 48.1651C34.8794 48.2719 34.5165 48.0081 33.7212 47.6953C33.5238 47.6182 33.2608 47.5328 33.0598 47.5143C32.6988 47.48 32.2627 47.5807 32.1938 47.9734C32.1595 48.1758 32.3977 48.3651 32.5794 48.4446C33.0059 48.6272 33.3527 48.6929 33.7725 48.6985C35.0128 48.7188 36.4066 48.5154 37.4211 47.7992C37.5599 47.7005 37.6963 47.5559 37.6978 47.3737C37.7022 47.0058 37.0547 46.7808 37.0547 46.7808C36.3714 46.4969 35.1088 46.3587 34.4584 46.3054C33.7758 46.2465 32.7018 46.1584 32.4439 46.1206C32.1784 46.0828 31.89 46.0295 31.6601 45.9268C31.4291 45.8228 31.2032 45.5902 31.1361 45.3328C31.0172 44.8687 31.1689 44.2994 31.4276 43.9287C32.1054 42.9577 33.6932 42.589 34.8794 42.4425C36.0274 42.3002 37.8835 42.3016 39.0111 42.8987C39.1852 42.9916 39.2741 43.0781 39.2377 43.2636C39.1643 43.6117 38.9017 43.8361 38.5834 43.9344C38.2494 44.0403 37.5587 44.0816 37.2553 44.1006C35.8958 44.1766 34.2529 44.1367 32.958 44.4886C32.8565 44.5174 32.6813 44.5645 32.6243 44.6279C32.4216 44.8471 33.0006 44.9098 33.1246 44.9349C33.1614 44.9436 33.1686 44.9449 33.207 44.9491L36.0689 45.2852ZM27.9811 39.245C27.9811 39.245 28.2023 38.9146 28.3876 38.6639C28.7249 38.2073 29.3355 37.5741 29.7953 37.1821C29.9359 37.0624 30.1018 36.9268 30.1018 36.9268C30.1018 36.9268 29.8424 36.9535 29.6954 36.9835C29.3466 37.0511 28.835 37.3899 28.5794 37.6088C28.1577 37.9685 27.6939 38.5533 27.9038 39.0729C27.9342 39.1463 27.9811 39.245 27.9811 39.245ZM30.3257 39.8702C30.992 39.8244 31.6161 39.6333 32.1971 39.3121C32.767 38.9944 33.6051 38.3749 33.5182 37.6466C33.4918 37.4108 33.3369 37.2329 33.1414 37.1498C32.8872 37.0401 32.7547 37.0578 32.43 37.1539C32.1942 37.2227 32.0879 37.2644 31.8652 37.3914C31.2116 37.7697 30.2849 38.5795 29.7817 39.2258C29.6656 39.3782 29.548 39.5486 29.456 39.6655C29.3979 39.7375 29.3528 39.8036 29.3585 39.8212C29.3785 39.8945 30.0655 39.8878 30.3257 39.8702ZM28.6293 41.1117C28.5606 41.1841 28.4879 41.3587 28.4125 41.4852C28.3722 41.5528 28.2976 41.6399 28.2482 41.6749C28.0748 41.8019 27.9279 41.8078 27.7605 41.661C27.5257 41.4541 27.39 41.1342 27.3803 40.8229C27.3753 40.6871 27.3987 40.5368 27.3729 40.4223C27.3302 40.2289 27.136 40.0298 27.0313 39.8449C26.9084 39.6272 26.809 39.2476 26.7966 39.0024C26.7544 38.2381 27.1588 37.534 27.6841 36.9787C28.2131 36.4171 28.9051 35.9504 29.6578 35.6327C30.3692 35.3341 31.4118 35.1306 32.1931 35.4002C32.4474 35.487 32.8018 35.7027 32.9799 35.9286C33.0177 35.9755 33.0485 36.0262 33.0873 36.051C33.122 36.0731 33.2129 36.0818 33.2852 36.095C33.5344 36.1381 33.8931 36.326 34.0397 36.4513C34.3341 36.7043 34.4954 36.9463 34.5701 37.2973C34.7197 38.0038 34.3114 38.7788 33.8464 39.2505C33.0502 40.0623 32.2638 40.6331 31.2452 41.0305C30.7977 41.2046 30.1009 41.3673 29.5933 41.3218C29.4357 41.3088 29.2738 41.2674 29.1203 41.2572C29.0419 41.2505 28.7555 41.1769 28.7249 41.1562C28.687 41.1271 28.6379 41.1018 28.6293 41.1117ZM29.5391 42.6779C29.5701 42.6831 29.6179 42.697 29.659 42.7127C30.0161 42.8481 30.163 43.1774 30.251 43.5391C30.4549 44.379 30.5419 46.2372 30.5758 46.9645C30.6007 47.5104 30.6144 48.0475 30.6373 48.5871C30.6568 49.0441 30.6934 49.6516 30.5978 50.0797C30.5631 50.2337 30.4597 50.4128 30.3117 50.5045C30.1421 50.6126 29.7562 50.6209 29.5441 50.5773C29.0212 50.4696 28.8513 50.1346 28.7767 49.6194C28.5993 48.39 28.6848 45.9772 28.7894 44.9591C28.8242 44.6228 28.9513 43.5453 29.1276 43.0936C29.1877 42.9412 29.3159 42.6344 29.5391 42.6779ZM13.6327 44.7234C13.6327 44.7234 12.8545 44.7783 12.319 44.8375C11.6376 44.9106 10.3572 45.1309 9.61817 45.3938C9.39649 45.4729 8.94619 45.6607 8.90706 45.8878C8.86593 46.1232 9.01256 46.3073 9.17564 46.4977C9.26994 46.6083 9.80367 47.1199 9.95334 47.2442C10.5807 47.7661 11.8528 48.571 12.7897 48.9618C13.1116 49.0945 13.6441 49.2844 13.6441 49.2844C13.6441 49.2844 13.6045 47.7737 13.6116 46.2856C13.6157 45.5006 13.6327 44.7234 13.6327 44.7234ZM27.9014 45.3246C27.946 45.7304 27.8413 46.4978 27.8231 46.599C27.79 46.8323 27.6134 47.3704 27.5841 47.4361C27.4416 47.7631 27.3011 48.0311 27.1522 48.2983C26.897 48.7559 26.2902 49.4813 25.93 49.7918C24.5906 50.9454 22.517 51.6022 20.738 51.8185C19.531 51.9638 18.1439 51.9425 16.8649 51.7067C16.4247 51.6269 15.7697 51.4765 15.7697 51.4765C15.7697 51.4765 15.7718 51.7375 15.7508 51.921C15.7406 52.0047 15.6773 52.2251 15.6419 52.2965C15.5489 52.488 15.3962 52.5867 15.1742 52.6292C14.9062 52.6787 14.622 52.6953 14.3744 52.5898C13.9678 52.4194 13.8219 52.0404 13.751 51.6033C13.6937 51.2537 13.6338 50.646 13.6338 50.646C13.6338 50.646 13.3296 50.5025 13.076 50.3764C12.2971 49.994 11.5573 49.5307 10.9101 49.0542C10.7308 48.9208 9.96042 48.278 9.7904 48.1184C9.31361 47.6674 8.8847 47.2187 8.55841 46.643C8.30475 46.1932 8.2317 45.794 8.42463 45.3174C8.69067 44.6531 9.64651 44.153 10.3007 43.868C10.7808 43.6568 12.2738 43.171 12.894 43.0809C13.187 43.0392 13.6413 42.9581 13.6692 42.94C13.6807 42.9313 13.6886 42.9239 13.6968 42.9146C13.7111 42.8945 13.7353 42.2369 13.7306 41.9964C13.7245 41.7599 13.9063 40.2065 13.9647 39.878C13.9951 39.7004 14.1301 39.0166 14.268 38.8371C14.3581 38.7158 14.5176 38.7256 14.6476 38.8053C15.3589 39.246 15.575 40.7744 15.6279 41.5521C15.6595 42.026 15.6753 42.7387 15.6753 42.7387C15.6753 42.7387 16.4913 42.7146 16.9932 42.7288C17.481 42.7401 18.0187 42.8168 18.525 42.8972C19.1732 43.0008 20.4366 43.2754 21.1612 43.6414C21.7578 43.9428 22.3163 44.4506 22.4973 44.988C22.6654 45.4807 22.6402 45.8217 22.3842 46.2663C22.0962 46.7684 21.5516 47.1415 20.9995 47.1727C20.8352 47.1822 20.2167 47.1003 20.0264 46.9535C19.9518 46.8949 19.9556 46.7893 20.0095 46.7177C20.0299 46.6926 20.319 46.5394 20.4896 46.45C20.5752 46.4037 20.6459 46.3537 20.7127 46.2931C20.8545 46.1687 20.9821 46.0318 20.9678 45.8713C20.9482 45.6629 20.727 45.5345 20.5161 45.4518C19.5266 45.0601 17.5511 44.735 16.5964 44.6788C16.2227 44.6569 15.6912 44.6382 15.6912 44.6382L15.8036 49.8909C15.8036 49.8909 16.243 49.9743 16.5893 50.0302C16.788 50.0602 17.6299 50.1357 17.8537 50.1412C19.5572 50.186 21.4586 50.034 23.022 49.299C23.7083 48.9771 24.338 48.5764 24.8147 48.034C25.443 47.3163 25.7721 46.334 25.685 45.308C25.5895 44.1875 24.7981 42.8574 24.166 42.0475C22.4961 39.9077 19.6337 38.1476 17.1154 37.1156C14.5444 36.0627 12.0034 35.4571 9.27482 35.3556C8.57141 35.3297 7.03768 35.365 6.2624 35.5787C6.15166 35.6098 6.04003 35.647 5.9372 35.67C5.85597 35.6898 5.72797 35.7434 5.69283 35.7717C5.67336 35.7874 5.6541 35.8091 5.6541 35.8091C5.6541 35.8091 5.70191 35.8354 5.74758 35.8547C5.8297 35.8904 6.17539 35.9118 6.35429 35.9444C6.51434 35.9744 6.68099 36.0582 6.74695 36.175C6.80961 36.2861 6.81745 36.3737 6.74255 36.4663C6.56688 36.6792 5.9057 36.6433 5.61456 36.5974C5.31199 36.5493 4.93528 36.4571 4.86609 36.1946C4.78583 35.8855 4.93322 35.5824 5.09245 35.3023C5.41234 34.7417 5.87056 34.4502 6.54157 34.2676C7.49466 34.0063 8.6981 33.8236 9.59809 33.7893C11.6351 33.7127 13.563 34.0676 15.5366 34.6646C16.6662 35.005 18.145 35.576 19.2277 36.0954C20.0046 36.4687 21.2286 37.155 21.9162 37.6036C22.133 37.7462 23.4021 38.6752 23.5992 38.8386C24.0105 39.1735 24.5483 39.655 24.9378 40.0401C25.6914 40.7842 26.6286 41.9247 27.084 42.8299C27.1935 43.0467 27.2784 43.2599 27.4198 43.5112C27.4684 43.5973 27.6764 44.1121 27.711 44.2608C27.7452 44.4079 27.7954 44.6242 27.8025 44.6328C27.8126 44.7118 27.909 45.1541 27.9014 45.3246ZM53.5098 44.1632C52.5559 44.3824 50.0474 44.5041 50.0474 44.5041L49.7311 45.4913C49.7311 45.4913 50.9847 45.3847 51.8966 45.4796C51.8966 45.4796 52.1921 45.4454 52.2268 45.8139C52.2386 46.1575 52.1976 46.5262 52.1976 46.5262C52.1976 46.5262 52.1786 46.7492 51.8614 46.806C51.5175 46.8631 49.1594 46.9539 49.1594 46.9539L48.7775 48.2408C48.7775 48.2408 48.6356 48.5383 48.9537 48.4534C49.2492 48.3746 51.72 47.9126 52.0418 47.9791C52.3867 48.0644 52.7684 48.5226 52.658 48.9401C52.5265 49.4575 50.0604 51.0247 48.5586 50.9153C48.5586 50.9153 47.7694 50.966 47.1024 49.9048C46.4812 48.8935 47.3378 46.9788 47.3378 46.9788C47.3378 46.9788 46.9452 46.0849 47.2297 45.7819C47.2297 45.7819 47.399 45.6288 47.8927 45.5942L48.4971 44.3482C48.4971 44.3482 47.8086 44.3955 47.399 43.8908C47.0175 43.412 46.9855 43.192 47.2781 43.0598C47.5909 42.9058 50.458 42.3845 52.431 42.4506C52.431 42.4506 53.1167 42.3835 53.7113 43.5685C53.7115 43.5686 53.9995 44.0479 53.5098 44.1632ZM46.0891 48.954C45.8362 49.5466 45.1683 50.179 44.3385 49.7859C43.5194 49.392 42.2147 46.7313 42.2147 46.7313C42.2147 46.7313 41.7195 45.7392 41.6242 45.7647C41.6242 45.7647 41.5172 45.571 41.4516 46.6551C41.3833 47.7347 41.4647 49.8398 41.0325 50.1712C40.623 50.5034 40.1273 50.3711 39.8702 49.983C39.6365 49.6006 39.5392 48.6919 39.6667 47.096C39.8166 45.497 40.1894 43.7958 40.6657 43.266C41.1413 42.7399 41.5232 43.1219 41.672 43.2604C41.672 43.2604 42.3082 43.835 43.3574 45.5222L43.5425 45.8343C43.5425 45.8343 44.496 47.4283 44.5956 47.4246C44.5956 47.4246 44.6735 47.4978 44.743 47.4452C44.843 47.4167 44.8027 46.9056 44.8027 46.9056C44.8027 46.9056 44.6049 45.1684 43.7351 42.2281C43.7351 42.2281 43.6036 41.8615 43.6925 41.5179C43.7808 41.1708 44.1301 41.3337 44.1301 41.3337C44.1301 41.3337 45.4782 42.0091 46.1325 44.196C46.7826 46.3836 46.3457 48.3569 46.0891 48.954ZM60.5979 47.6442C59.9842 48.711 58.2518 50.9449 55.9494 50.4175C55.1891 52.2545 54.5504 54.1129 54.1852 56.8937C54.1852 56.8937 54.105 57.434 53.6542 57.2463C53.2076 57.0905 52.4718 56.3506 52.323 55.3269C52.1629 53.9823 52.7637 51.7092 53.9916 49.1027C53.6335 48.5226 53.3893 47.6937 53.5983 46.5136C53.5983 46.5136 53.9067 44.322 56.1157 42.3467C56.1157 42.3467 56.3805 42.1188 56.5341 42.189C56.7032 42.2597 56.6249 42.9728 56.4907 43.3196C56.3512 43.6644 55.3678 45.3607 55.3678 45.3607C55.3678 45.3607 54.7544 46.5068 54.927 47.4107C56.0855 45.6359 58.7191 42.0571 60.3515 43.1857C60.8998 43.5766 61.1526 44.4268 61.1526 45.343C61.1529 46.1478 60.9581 47.0032 60.5979 47.6442ZM60.1215 44.8334C60.1215 44.8334 60.0306 44.1278 59.3383 44.9052C58.7428 45.5612 57.6687 46.7902 56.8041 48.4596C57.7113 48.3581 58.5863 47.8677 58.8509 47.6179C59.2811 47.2376 60.2831 46.2059 60.1215 44.8334ZM73.281 44.6728H69.0614C68.9773 43.2438 68.8042 41.8519 68.5321 40.4184C68.5041 40.27 68.3745 40.1624 68.2237 40.1624H67.251C67.1663 40.1624 67.0862 40.2003 67.0313 40.2664C66.9762 40.3336 66.9547 40.4192 66.9709 40.5029C67.2473 41.8901 67.4224 43.2555 67.5087 44.6742H63.4493C63.2601 44.6742 63.1065 44.8268 63.1065 45.0145V45.8887C63.1065 46.0768 63.2601 46.2305 63.4493 46.2305H67.5669C67.5695 46.4463 67.5716 46.6395 67.5716 46.8207C67.5716 48.0806 67.5171 49.1185 67.3896 50.2897C67.3796 50.3802 67.4093 50.4703 67.4708 50.5367C67.5305 50.6037 67.6166 50.6418 67.7059 50.6418H68.6081C68.7842 50.6418 68.93 50.5099 68.9477 50.3352C69.0709 49.156 69.1238 48.1053 69.1238 46.8207C69.1238 46.6401 69.1218 46.4462 69.1192 46.2305H73.281C73.4697 46.2305 73.6237 46.0767 73.6237 45.8886V45.0144C73.6236 44.8259 73.4696 44.6728 73.281 44.6728Z" fill="white"/>
<path d="M16.8604 32.9585C16.8006 33.047 16.7862 33.1556 16.8205 33.2577C16.8563 33.3595 16.9343 33.437 17.035 33.4721L17.7913 33.7258C17.8371 33.74 17.8825 33.7475 17.9271 33.7475C18.0673 33.7475 18.1989 33.6783 18.2768 33.5622C20.7544 29.9356 24.1076 26.916 27.9744 24.8299C31.9664 22.676 36.4893 21.5366 41.0555 21.5366C46.5709 21.5366 51.8924 23.1577 56.4451 26.2242C60.8874 29.2153 64.3374 33.3885 66.4223 38.2927C66.4845 38.4395 66.6284 38.5341 66.7879 38.5341H67.6912C67.7952 38.5341 67.8932 38.4819 67.952 38.3952C68.0112 38.3087 68.0223 38.1989 67.983 38.1016C65.8332 32.8286 62.1979 28.3335 57.4686 25.1041C52.6273 21.7979 46.9518 20.05 41.0555 20.05C31.3079 20.05 22.2627 24.8758 16.8604 32.9585Z" fill="url(#paint0_linear)"/>
</g>
<defs>
<linearGradient id="paint0_linear" x1="68.8437" y1="32.0683" x2="17.8838" y2="25.1533" gradientUnits="userSpaceOnUse">
<stop stop-color="#101C50"/>
<stop offset="0.236" stop-color="#0D267A"/>
<stop offset="0.4973" stop-color="#085AA4"/>
<stop offset="0.6549" stop-color="#058BBF"/>
<stop offset="1" stop-color="#B1FFFF"/>
</linearGradient>
<clipPath id="clip0">
<rect width="68.7801" height="37.2359" fill="white" transform="translate(4.84351 20.05)"/>
</clipPath>
</defs>
</svg>
