<svg width="85" height="86" viewBox="0 0 85 86" fill="none" xmlns="http://www.w3.org/2000/svg">
<circle cx="42.0924" cy="42.9088" r="35" transform="rotate(-13.2546 42.0924 42.9088)" fill="#70DCF1" fill-opacity="0.21"/>
<path d="M64.2652 38.3473C67.0475 50.7121 58.7603 63.1738 45.6587 66.1219C32.5571 69.0701 19.7307 61.3594 16.9483 48.9946C14.166 36.6298 22.4531 24.1681 35.5548 21.22C48.6564 18.2718 61.4828 25.9825 64.2652 38.3473Z" stroke="#70DCF1" stroke-width="1.5"/>
<path d="M22.5857 41.3833V41.3833C24.1569 38.1051 27.5301 36.0781 31.1623 36.2295L31.8345 36.2575" stroke="#70DCF1" stroke-width="1.5"/>
<path d="M44.5593 30.7936L45.6812 30.44C49.8107 29.1383 54.3178 29.9967 57.6797 32.7252V32.7252" stroke="#70DCF1" stroke-width="1.5"/>
<path d="M35.4997 55.0875L34.306 56.7808C34.1059 57.0646 34.4698 57.4036 34.7387 57.1839C38.8737 53.8059 44.1733 52.1935 49.489 52.6962L51.7312 52.9082C52.1543 52.9482 52.3128 52.3686 51.9283 52.1877L49.9622 51.2628C44.852 48.8589 38.7535 50.4716 35.4997 55.0875Z" fill="#70DCF1" stroke="#70DCF1" stroke-width="1.5"/>
<path d="M23.5637 45.73L24.0902 45.0568C25.1653 43.6821 26.5815 42.6128 28.1979 41.955L29.9147 41.2563" stroke="#70DCF1" stroke-width="1.5"/>
<path d="M34.7735 43.7149C35.184 45.5393 33.9541 47.4437 31.9176 47.902C29.8811 48.3602 27.9539 47.1662 27.5434 45.3419C27.1329 43.5175 28.3628 41.6131 30.3993 41.1548C32.4359 40.6966 34.363 41.8906 34.7735 43.7149Z" fill="#70DCF1" stroke="#70DCF1" stroke-width="1.5"/>
<path d="M43.0138 41.9653V41.9653C44.7322 39.6403 47.0121 37.7889 49.6404 36.5844L50.8155 36.0458" stroke="#70DCF1" stroke-width="1.5"/>
<path d="M56.912 39.4946C57.481 42.0233 55.8887 44.5378 53.352 45.1086C50.8152 45.6794 48.2993 44.0894 47.7303 41.5607C47.1613 39.0319 48.7536 36.5174 51.2903 35.9466C53.827 35.3758 56.343 36.9658 56.912 39.4946Z" fill="#70DCF1" stroke="#70DCF1" stroke-width="1.5"/>
</svg>
