<svg width="81" height="80" viewBox="0 0 81 80" fill="none" xmlns="http://www.w3.org/2000/svg">
<path d="M70.6202 37.3706H65.8377V45.0675C65.8377 45.4152 65.6984 45.7104 65.4763 45.9527C65.2536 46.1673 64.9478 46.2745 64.5874 46.3005H61.8065C61.4172 46.2736 61.1112 46.1663 60.8889 45.9527C60.6658 45.7114 60.5275 45.4164 60.5275 45.0675V37.3706H55.745V45.4698C55.7733 46.5428 55.9682 47.481 56.4405 48.2312C56.9125 48.9825 57.5245 49.5455 58.3309 49.9207C59.1653 50.2962 60.1103 50.5118 61.1945 50.5118H65.8385V50.4586C66.8398 50.4586 67.7012 50.2434 68.4242 49.8412C69.1191 49.4115 69.6755 48.8224 70.0373 48.0701C70.426 47.3198 70.6208 46.434 70.6208 45.4686L70.6202 37.3706ZM22.7661 37.8535C21.9318 37.5049 21.0144 37.3439 20.0133 37.3706H16.9268L15.7313 37.5049C15.4532 37.5852 15.3141 37.639 15.3141 37.639V31.4169H10.5593V50.5122H15.3141V42.788C15.342 42.466 15.4532 42.1445 15.7034 41.9299C15.9536 41.7152 16.2317 41.5813 16.621 41.5813H19.4017C19.7352 41.5813 20.0412 41.7164 20.2914 41.9299C20.5416 42.1445 20.6524 42.466 20.6805 42.788V50.5122H25.4353V42.1983C25.4353 41.0448 25.1851 40.1064 24.7123 39.3822C24.2123 38.6849 23.5726 38.1753 22.7661 37.8535ZM38.949 45.0677C38.9211 45.4156 38.8099 45.7108 38.5876 45.9529C38.3372 46.1677 38.0314 46.2749 37.67 46.3007H34.8893C34.5279 46.2738 34.2221 46.1665 33.9996 45.9529C33.7493 45.7116 33.6382 45.4168 33.6103 45.0677V37.3706H28.8555V45.4698C28.8555 46.5428 29.078 47.481 29.5229 48.2312C29.9677 48.9825 30.6072 49.5455 31.4137 49.9207C32.2478 50.2962 33.1654 50.5118 34.2775 50.5118H38.949V50.4586C39.9501 50.4586 40.8117 50.2434 41.507 49.8412C42.202 49.4115 42.7583 48.8224 43.1479 48.0701C43.5089 47.3198 43.704 46.434 43.7317 45.4686V37.3706H38.949V45.0677ZM47.3467 50.5122H52.1015V31.4169H47.3467V50.5122Z" fill="url(#paint0_linear)"/>
<rect x="1.37207" y="1.36426" width="78.4361" height="77.2908" rx="9.5" stroke="white"/>
<defs>
<linearGradient id="paint0_linear" x1="40.59" y1="31.4169" x2="40.59" y2="50.5122" gradientUnits="userSpaceOnUse">
<stop stop-color="#A3CC39"/>
<stop offset="0.698" stop-color="#85BD40"/>
<stop offset="1" stop-color="#65AD45"/>
</linearGradient>
</defs>
</svg>
