<svg width="80" height="80" viewBox="0 0 80 80" fill="none" xmlns="http://www.w3.org/2000/svg">
<rect x="0.936035" y="1.36426" width="78.4361" height="77.2908" rx="9.5" stroke="white"/>
<g clip-path="url(#clip0)">
<path d="M15.9724 52.1456C14.9086 52.3323 13.8261 52.3882 12.7063 52.5373L9.2907 42.5421V52.9662C8.2269 53.0781 7.2564 53.2273 6.24854 53.3764V34.2811H9.08552L12.9675 45.1156V34.2811H15.9724V52.1456ZM21.8516 41.274C23.0088 41.274 24.7818 41.2181 25.8456 41.2181V44.2017C24.5205 44.2017 22.9714 44.2017 21.8516 44.2576V48.6959C23.606 48.584 25.3604 48.4347 27.1334 48.3787V51.2503L18.8653 51.9032V34.2811H27.1334V37.2648H21.8516V41.274ZM38.2384 37.2648H35.1402V50.9896C34.1324 50.9896 33.1245 50.9896 32.1541 51.0268V37.2648H29.056V34.2811H38.2385L38.2384 37.2648ZM43.091 41.069H47.1784V44.0526H43.091V50.8218H40.1606V34.2811H48.5036V37.2648H43.091V41.069ZM53.3561 48.211C55.0546 48.2482 56.7716 48.379 58.4328 48.472V51.4184C55.7639 51.2505 53.0949 51.0829 50.37 51.0268V34.2811H53.3561V48.211ZM60.9523 51.6236C61.9042 51.6796 62.9121 51.7355 63.8826 51.8473V34.2811H60.9523V51.6236ZM76.9661 34.2811L73.1772 43.3626L76.9661 53.3764C75.8461 53.2273 74.7263 53.0221 73.6064 52.8356L71.4602 47.316L69.2767 52.3882C68.194 52.2016 67.1488 52.1456 66.0665 51.9964L69.9112 43.2506L66.4396 34.2811H69.6497L71.6094 39.2974L73.6999 34.2811H76.9661V34.2811Z" fill="#D81F26"/>
</g>
<defs>
<clipPath id="clip0">
<rect width="70.7175" height="19.0953" fill="white" transform="translate(6.24854 34.2811)"/>
</clipPath>
</defs>
</svg>
