<svg width="80" height="79" viewBox="0 0 80 79" fill="none" xmlns="http://www.w3.org/2000/svg">
<path d="M38.3225 63.4841V63.4363C38.3709 63.3767 38.4557 63.3409 38.5283 63.3528C38.8793 63.3409 39.2183 63.3409 39.5693 63.3528C39.6419 63.3528 39.7266 63.3767 39.7751 63.4363V63.4841H38.3225Z" fill="#D1EFFA"/>
<path d="M60.583 51.8044C61.382 51.8283 62.1688 51.876 62.9435 52.0788C63.1613 52.1385 63.3671 52.2101 63.5729 52.3055C63.8513 52.4129 64.0329 52.6753 64.0692 52.9617C64.1176 53.2957 64.1297 53.6417 64.1055 53.9877C63.9481 56.0277 63.3066 57.9962 62.2414 59.7499C61.854 60.3822 61.3819 60.9548 60.8372 61.4559C60.7283 61.5633 60.5951 61.6468 60.4499 61.6945C60.2199 61.7542 60.0746 61.6348 60.0625 61.4082C60.0746 61.2889 60.0989 61.1696 60.1473 61.0503C60.5709 59.9288 60.9825 58.8193 61.3093 57.6621C61.503 57.0298 61.6361 56.3856 61.7209 55.7294C61.7451 55.4908 61.7572 55.2522 61.733 55.0136C61.7209 54.608 61.4546 54.262 61.0551 54.1427C60.6799 54.0234 60.2925 53.9519 59.8931 53.928C58.7795 53.8803 57.6658 53.928 56.5643 54.0712L55.0996 54.2501C54.9423 54.262 54.797 54.2501 54.7123 54.107C54.6276 53.9638 54.6639 53.8206 54.7486 53.6775C54.8454 53.5462 54.9665 53.4269 55.1117 53.3434C56.0075 52.7111 57.0122 52.3294 58.0774 52.0788C58.9005 51.9118 59.7357 51.8283 60.583 51.8044Z" fill="#00A8E1"/>
<path d="M39.775 63.4363C39.2908 63.4244 38.8066 63.4244 38.3224 63.4363C37.6566 63.4005 36.9909 63.3767 36.3251 63.3289C34.5579 63.1977 32.8027 62.9352 31.0838 62.5415C25.1405 61.1815 19.9234 58.4495 15.372 54.4768C14.9484 54.107 14.5489 53.7252 14.1374 53.3434C14.0405 53.2599 13.9558 53.1406 13.9074 53.0213C13.8348 52.8543 13.8711 52.6754 13.9921 52.5441C14.1132 52.4129 14.3068 52.3652 14.4763 52.4368C14.5852 52.4845 14.6942 52.5322 14.791 52.5918C19.1366 55.2403 23.8816 57.173 28.8566 58.3183C30.527 58.7001 32.2096 58.9983 33.9042 59.2131C36.3372 59.5113 38.7945 59.6187 41.2396 59.5352C42.559 59.4994 43.8663 59.3801 45.1736 59.2131C48.224 58.8313 51.238 58.1513 54.1552 57.1969C55.6925 56.6958 57.1935 56.1232 58.6582 55.4551C58.876 55.3358 59.1423 55.3 59.3844 55.3596C59.7839 55.4551 60.026 55.8607 59.9291 56.2544C59.917 56.3021 59.8928 56.3618 59.8686 56.4095C59.7718 56.5884 59.6386 56.7435 59.4692 56.8628C58.0771 57.9365 56.5762 58.879 54.9905 59.6664C52.0006 61.1577 48.805 62.2194 45.5125 62.8279C43.6121 63.1619 41.6996 63.3647 39.775 63.4363Z" fill="#00A8E1"/>
<path d="M21.2486 45.1892C21.3212 44.9506 21.3938 44.7239 21.4664 44.4853C22.0233 42.6362 22.5801 40.7989 23.1369 38.9498L23.2095 38.735C23.27 38.5203 23.4758 38.3891 23.6937 38.3891H25.5336C25.9936 38.3891 26.0904 38.5203 25.933 38.9498L25.2068 40.8467C24.3958 42.9225 23.5847 45.0103 22.7737 47.0861C22.7495 47.1577 22.7132 47.2293 22.689 47.3008C22.6043 47.5514 22.3501 47.7184 22.0838 47.6945C21.5512 47.6826 21.0186 47.6826 20.486 47.6945C20.1107 47.7065 19.8928 47.5394 19.7597 47.2054C19.4571 46.418 19.1424 45.6187 18.8397 44.8313C18.1135 42.9583 17.3751 41.0853 16.6488 39.2003C16.5762 39.0571 16.5278 38.8901 16.4915 38.735C16.4551 38.4964 16.5399 38.3771 16.782 38.3771C17.4719 38.3652 18.1619 38.3771 18.8397 38.3771C19.1303 38.3771 19.2634 38.568 19.336 38.8185C19.4692 39.2719 19.6023 39.7372 19.7476 40.1905C20.2439 41.8488 20.7281 43.519 21.2243 45.1773C21.2122 45.1892 21.2243 45.1892 21.2486 45.1892Z" fill="white"/>
<path d="M29.8186 43.042V47.3368C29.7944 47.5754 29.6855 47.6828 29.4434 47.6947C28.7897 47.7066 28.1482 47.7066 27.4945 47.6947C27.2524 47.6947 27.1435 47.5754 27.1193 47.3487C27.1072 47.2771 27.1072 47.1936 27.1072 47.1221V38.8664C27.1193 38.4966 27.2161 38.3892 27.5914 38.3892H29.3344C29.7097 38.3892 29.8186 38.4966 29.8186 38.8664V43.042Z" fill="white"/>
<path d="M28.4748 34.1062C28.7169 34.0824 28.959 34.1301 29.1889 34.2255C29.661 34.4045 29.9878 34.834 30.0121 35.335C30.1089 36.4207 29.3705 36.9695 28.3901 36.9456C28.2569 36.9456 28.1238 36.9217 27.9906 36.8979C27.2401 36.7189 26.8528 36.1463 26.9254 35.3231C26.9859 34.667 27.5064 34.1778 28.2206 34.1182C28.3053 34.1062 28.3901 34.0943 28.4748 34.1062Z" fill="white"/>
<path d="M61.4963 42.3022V42.35C61.4479 42.3022 61.4237 42.2307 61.4479 42.171V42.0756C61.4479 42.0756 61.4479 42.0636 61.46 42.0636H61.4479V41.9443H61.4721C61.4721 41.9324 61.46 41.9324 61.46 41.9205C61.4358 41.6938 61.3873 41.4671 61.3268 41.2524C60.8789 39.6776 59.8743 38.6397 58.2402 38.2341C57.4776 38.0551 56.7029 38.0313 55.9282 38.1506C54.2941 38.3892 53.1199 39.2481 52.551 40.7752C51.9942 42.2307 52.0063 43.8293 52.5631 45.2848C53.0473 46.609 54.0157 47.4441 55.4077 47.7901C56.1461 47.969 56.9208 48.0168 57.6833 47.9094C60.2253 47.6111 61.2784 45.7142 61.4479 44.0679H61.4358V43.9009C61.4237 43.8293 61.4115 43.7696 61.4842 43.7219V43.7458C61.4842 43.7339 61.4963 43.71 61.5084 43.6981V42.3261C61.5084 42.3142 61.4963 42.3142 61.4963 42.3022ZM58.5912 44.569C58.5186 44.8195 58.4096 45.0462 58.2523 45.2609C57.986 45.6307 57.5623 45.8693 57.1023 45.9051C56.8723 45.929 56.6424 45.929 56.4124 45.8813C55.904 45.7858 55.4803 45.4518 55.2745 44.9865C55.093 44.6167 54.984 44.2111 54.9477 43.8054C54.8872 43.1016 54.8751 42.3977 55.0446 41.7057C55.1051 41.4313 55.2261 41.157 55.3714 40.9183C55.6377 40.4889 56.0976 40.2145 56.606 40.1787C56.836 40.1548 57.066 40.1548 57.296 40.2025C57.7802 40.298 58.1796 40.6082 58.3975 41.0496C58.6033 41.4671 58.7243 41.9324 58.7485 42.3977C58.7607 42.6124 58.7728 42.8272 58.7606 43.0419C58.797 43.5668 58.7364 44.0798 58.5912 44.569Z" fill="white"/>
<path d="M40.2769 34.1897H38.5944C38.1344 34.1897 38.0497 34.2732 38.0497 34.7266V38.5919C38.0497 38.6754 38.086 38.7589 38.0255 38.8424C37.9165 38.8305 37.856 38.7589 37.7713 38.7112C36.5124 37.9835 35.193 37.8522 33.8615 38.4607C32.9294 38.8902 32.3484 39.6656 31.9731 40.5842C31.61 41.4671 31.5253 42.3976 31.5495 43.3401C31.5495 44.2229 31.7553 45.0938 32.1547 45.8812C32.6147 46.7521 33.2804 47.4202 34.2488 47.7065C35.5682 48.1121 36.8029 47.9093 37.9286 47.0861C38.0134 47.0384 38.0618 46.9549 38.1707 46.931C38.2312 47.0623 38.2797 47.2054 38.3039 47.3486C38.3523 47.5395 38.5218 47.6707 38.7275 47.6707H39.018C39.4538 47.6707 39.8775 47.6826 40.3011 47.6707C40.6401 47.6707 40.7369 47.5633 40.749 47.2174V34.643C40.7369 34.2732 40.6401 34.1897 40.2769 34.1897ZM38.0618 42.9703V45.1415C38.086 45.2847 38.0013 45.4159 37.8681 45.4756C37.2871 45.7977 36.6213 45.9289 35.9677 45.8335C35.4109 45.7738 34.9267 45.4398 34.6725 44.9507C34.4788 44.5689 34.3699 44.1633 34.3335 43.7457C34.2367 42.9941 34.2972 42.2306 34.4788 41.5029C34.5393 41.3 34.612 41.1092 34.7209 40.9183C34.9751 40.453 35.4593 40.1547 35.9919 40.119C36.6334 40.0593 37.275 40.1786 37.856 40.4411C38.0013 40.4888 38.086 40.632 38.0739 40.787C38.0497 41.5267 38.0618 42.2425 38.0618 42.9703Z" fill="white"/>
<path d="M47.588 43.9129C48.29 43.8652 48.9921 43.734 49.6215 43.3999C50.2631 43.0897 50.711 42.5052 50.8441 41.8132C50.9289 41.3837 50.9288 40.9304 50.832 40.5009C50.5778 39.4272 49.8879 38.7591 48.8469 38.4131C48.2658 38.2342 47.6485 38.1626 47.0433 38.1865C45.0097 38.2342 43.4603 39.2482 42.8309 41.2525C42.4072 42.5767 42.4677 43.9248 42.8793 45.2491C43.3029 46.6091 44.2713 47.4323 45.6512 47.8021C46.2444 47.9453 46.8617 48.0049 47.4669 47.9811C48.3506 47.9691 49.2342 47.8021 50.0694 47.4919C50.4205 47.3607 50.5052 47.2414 50.5052 46.8716V46.0126C50.4931 45.6666 50.3478 45.5473 49.9968 45.6308C49.7305 45.7024 49.4763 45.7621 49.21 45.8217C48.399 46.0126 47.5517 46.0484 46.7285 45.9052C45.9054 45.7501 45.3486 45.2849 45.1307 44.4736C45.0702 44.235 45.0218 43.9964 44.9976 43.7459C45.0581 43.7459 45.1186 43.7459 45.167 43.7697C45.9659 43.9129 46.777 43.9726 47.588 43.9129ZM45.0581 42.0041C45.1428 41.5388 45.2518 41.0855 45.5423 40.7037C45.9902 40.1191 46.6075 39.9521 47.3096 40.0237C47.3701 40.0237 47.4185 40.0476 47.479 40.0476C48.3264 40.1788 48.5321 40.8469 48.3748 41.4911C48.2537 41.9683 47.8543 42.1473 47.4064 42.2308C47.1643 42.2785 46.9101 42.3023 46.6559 42.2904C46.1596 42.2785 45.6754 42.2427 45.1913 42.1711C45.0823 42.1592 45.0339 42.1115 45.0581 42.0041Z" fill="white"/>
<path d="M47.0351 21.1039C47.3377 20.9249 47.6524 20.7341 47.9792 20.567C48.8265 20.1376 49.7707 19.9228 50.727 19.9705C51.4169 20.0063 52.0464 20.1972 52.5306 20.6983C52.9905 21.1635 53.16 21.7362 53.2084 22.3566C53.2205 22.4878 53.2205 22.619 53.2205 22.7622V28.942C53.2205 29.4788 53.1479 29.5504 52.6032 29.5504H51.1264C51.0296 29.5504 50.9327 29.5504 50.8359 29.5385C50.6907 29.5265 50.5696 29.4072 50.5454 29.2641C50.5212 29.1329 50.5212 29.0016 50.5212 28.8704V23.3468C50.5333 23.1201 50.5091 22.9053 50.4486 22.6906C50.3517 22.3208 50.0128 22.0583 49.6255 22.0344C48.9113 21.9867 48.1971 22.1299 47.5435 22.4281C47.4466 22.452 47.3861 22.5474 47.3982 22.6429V28.9181C47.3982 29.0374 47.3982 29.1448 47.374 29.2641C47.374 29.4311 47.2408 29.5504 47.0714 29.5504C46.8898 29.5623 46.7082 29.5623 46.5146 29.5623H45.2315C44.7836 29.5623 44.6868 29.455 44.6868 29.0136V23.3706C44.6868 23.1678 44.6747 22.9531 44.6262 22.7502C44.5415 22.3446 44.1905 22.0583 43.7789 22.0344C43.0526 21.9867 42.3143 22.1299 41.6606 22.4401C41.5638 22.4639 41.5032 22.5713 41.5275 22.6667V29.0255C41.5275 29.4669 41.4306 29.5623 40.9827 29.5623H39.3607C38.9371 29.5623 38.8281 29.443 38.8281 29.0374V20.7579C38.8281 20.6625 38.8402 20.567 38.8644 20.4716C38.9129 20.3284 39.0581 20.2449 39.2034 20.2449H40.7164C40.9343 20.2449 41.0675 20.3762 41.1401 20.579C41.2006 20.746 41.2369 20.9011 41.2975 21.08C41.4185 21.08 41.4911 20.9965 41.5759 20.9488C42.2416 20.5432 42.9437 20.1972 43.7305 20.054C44.3357 19.9347 44.941 19.9347 45.5462 20.054C46.1151 20.1733 46.6235 20.5074 46.9503 20.9846C46.9745 21.0204 46.9987 21.0442 47.023 21.0681C47.0109 21.08 47.023 21.08 47.0351 21.1039Z" fill="#00A8E1"/>
<path d="M29.1442 21.5573C29.2289 21.5334 29.3015 21.4857 29.3499 21.4141C29.5678 21.1994 29.7978 20.9965 30.0399 20.8057C30.6693 20.3285 31.4561 20.0899 32.2429 20.1495C32.5577 20.1614 32.6666 20.2569 32.6908 20.5551C32.715 20.9608 32.7029 21.3783 32.7029 21.7839C32.715 21.951 32.7029 22.106 32.6787 22.2731C32.6303 22.4878 32.5456 22.5713 32.3277 22.5952C32.1582 22.6071 32.0009 22.5952 31.8314 22.5833C31.0204 22.5117 30.2336 22.6668 29.471 22.9173C29.3015 22.9769 29.3015 23.0962 29.3015 23.2275V28.9539C29.3015 29.0613 29.3015 29.1567 29.2894 29.2641C29.2773 29.4192 29.1563 29.5385 28.9989 29.5385C28.9142 29.5504 28.8173 29.5504 28.7326 29.5504H27.159C27.0743 29.5504 26.9774 29.5504 26.8927 29.5385C26.7353 29.5266 26.6143 29.3953 26.6022 29.2402C26.5901 29.1448 26.5901 29.0494 26.5901 28.9539V20.8415C26.5901 20.2927 26.6506 20.233 27.2074 20.233H28.3695C28.6842 20.233 28.8294 20.3404 28.9142 20.6386C28.9989 20.9369 29.0715 21.2352 29.1442 21.5573Z" fill="#00A8E1"/>
<path d="M33.8654 24.8738V20.6386C33.8775 20.3522 33.9864 20.2449 34.2769 20.2329C34.9064 20.221 35.5358 20.221 36.1653 20.2329C36.4437 20.2329 36.5284 20.3165 36.5526 20.5908C36.5647 20.6982 36.5647 20.7937 36.5647 20.901V28.8465C36.5647 28.9777 36.5526 29.1089 36.5405 29.2402C36.5284 29.3953 36.4073 29.5026 36.25 29.5146C36.1774 29.5265 36.1168 29.5265 36.0442 29.5265H34.3617C34.3011 29.5265 34.2527 29.5265 34.1922 29.5146C34.0227 29.5026 33.8775 29.3714 33.8654 29.2044C33.8533 29.1089 33.8533 29.0135 33.8533 28.9181C33.8654 27.5938 33.8654 26.2338 33.8654 24.8738Z" fill="#00A8E1"/>
<path d="M35.2694 15.9619C35.463 15.95 35.6567 15.9857 35.8383 16.0454C36.4919 16.2601 36.8309 16.8208 36.7703 17.5486C36.7219 18.1689 36.2498 18.67 35.6204 18.7655C35.3541 18.8132 35.0757 18.8132 34.8094 18.7655C34.1194 18.6342 33.611 18.1332 33.6594 17.2742C33.7321 16.4272 34.301 15.9619 35.2694 15.9619Z" fill="#00A8E1"/>
<path d="M24.7989 23.8955C24.7505 23.2752 24.581 22.6667 24.3268 22.106C23.8305 21.08 23.0679 20.3284 21.9059 20.066C20.5744 19.7796 19.376 20.066 18.2866 20.8653C18.214 20.9369 18.1292 20.9965 18.0324 21.0442C18.0082 21.0323 17.984 21.0204 17.984 21.0084C17.9477 20.8891 17.9235 20.7698 17.8872 20.6505C17.7903 20.3523 17.6693 20.2449 17.3424 20.2449C16.9793 20.2449 16.6041 20.2568 16.2409 20.2449C15.9625 20.233 15.7083 20.2688 15.5146 20.4835C15.5146 24.6591 15.5146 28.8465 15.5268 33.0101C15.6841 33.2607 15.9262 33.3084 16.2046 33.2965C16.6404 33.2845 17.0761 33.2965 17.5119 33.2965C18.2745 33.2965 18.2745 33.2965 18.2745 32.5568V29.1567C18.2745 29.0732 18.2382 28.9778 18.3229 28.9062C18.9282 29.3714 19.6665 29.6578 20.4291 29.7294C21.4943 29.8367 22.4627 29.5743 23.2737 28.8585C23.8668 28.3216 24.3026 27.6297 24.5326 26.8661C24.8594 25.8879 24.8836 24.8977 24.7989 23.8955ZM21.9059 26.3651C21.8212 26.7349 21.6275 27.0689 21.3491 27.3195C21.0344 27.5819 20.647 27.737 20.2355 27.737C19.6181 27.7728 19.0129 27.6416 18.4682 27.3553C18.335 27.2956 18.2503 27.1644 18.2624 27.0212V24.8619C18.2624 24.1461 18.2745 23.4303 18.2624 22.7144C18.2503 22.5474 18.3471 22.4043 18.5045 22.3446C19.1702 22.0344 19.8602 21.8913 20.5865 22.0344C21.0949 22.106 21.5306 22.4281 21.7364 22.8934C21.918 23.2752 22.0269 23.6927 22.0511 24.1103C22.1238 24.8738 22.1238 25.6373 21.9059 26.3651Z" fill="#00A8E1"/>
<path d="M57.6389 25.6492C58.5468 25.8162 59.4788 25.8282 60.3867 25.685C60.9193 25.6134 61.4277 25.4583 61.8998 25.2078C62.4445 24.8976 62.8439 24.4681 63.0134 23.8716C63.4371 22.3684 62.7834 20.8533 61.1977 20.2926C60.423 20.0421 59.5999 19.9586 58.7889 20.0659C56.8764 20.2807 55.6296 21.3186 55.0607 23.12C54.6612 24.3488 54.7096 25.6015 55.0364 26.8422C55.4601 28.4289 56.5253 29.3714 58.1352 29.7054C59.0552 29.9083 59.9872 29.8725 60.9072 29.7293C61.3914 29.6458 61.8756 29.5265 62.3355 29.3475C62.6139 29.2402 62.7592 29.0732 62.7471 28.763C62.735 28.4766 62.7471 28.1784 62.7471 27.8801C62.7471 27.5222 62.6018 27.4149 62.2508 27.4984C61.8998 27.5819 61.5608 27.6535 61.2098 27.725C60.4593 27.8801 59.6846 27.8801 58.9341 27.7489C57.9052 27.5461 57.2395 26.6752 57.3 25.6015C57.409 25.6134 57.53 25.6254 57.6389 25.6492ZM57.3363 23.8239C57.3726 23.5376 57.4574 23.2632 57.5663 23.0007C57.9295 22.1298 58.692 21.8316 59.4667 21.8793C59.6846 21.8912 59.9025 21.9389 60.1083 22.0225C60.423 22.1537 60.6288 22.44 60.6651 22.7741C60.7014 22.9769 60.6893 23.1916 60.6288 23.3944C60.4835 23.8239 60.1325 24.0029 59.7088 24.0864C59.4546 24.146 59.1883 24.1699 58.922 24.146C58.45 24.146 57.9658 24.1102 57.4937 24.0386C57.3121 24.0148 57.3121 24.0148 57.3363 23.8239Z" fill="#00A8E1"/>
<rect x="0.808105" y="1.18341" width="78.4361" height="77.2908" rx="9.5" stroke="white"/>
</svg>
