<svg width="80" height="80" viewBox="0 0 80 80" fill="none" xmlns="http://www.w3.org/2000/svg">
<circle cx="39.8742" cy="39.8744" r="35" transform="rotate(8.66645 39.8742 39.8744)" fill="#70DCF1" fill-opacity="0.21"/>
<g clip-path="url(#clip0)">
<path d="M64.9019 34.8542C65.5015 34.425 65.7997 33.7063 65.6801 32.9787C65.5605 32.2511 65.0479 31.6656 64.3425 31.4508L60.5195 30.2869C60.4879 30.2772 60.4631 30.2527 60.4531 30.2212L59.2447 26.4119C59.0217 25.709 58.4303 25.2035 57.7016 25.0924C56.9726 24.9813 56.2574 25.2878 55.8352 25.8922L55.8347 25.8927C54.0646 23.8894 51.9866 22.2228 49.6424 20.9299C49.2016 20.6866 48.6473 20.8471 48.4042 21.2879C48.161 21.7286 48.3214 22.2829 48.7622 22.5261C51.0512 23.7885 53.0648 25.4386 54.7578 27.4346L53.5468 29.1683C53.5279 29.1954 53.4968 29.2114 53.4639 29.2112L49.4676 29.1835C48.7302 29.1784 48.0666 29.5846 47.7356 30.2434C47.4047 30.9023 47.4753 31.6772 47.9198 32.2655L50.3286 35.4544C50.3484 35.4807 50.3541 35.5152 50.3438 35.5464L49.0823 39.3384C48.8495 40.038 49.0307 40.7947 49.555 41.3131C49.8513 41.6061 50.2225 41.7885 50.6152 41.8484C50.9173 41.8944 51.2321 41.8679 51.5352 41.7632L55.3123 40.4576C55.3435 40.4468 55.3779 40.4521 55.4044 40.4717L58.6211 42.8432C58.9688 43.0995 59.3789 43.2257 59.7907 43.2191C59.7504 43.6772 59.6973 44.1346 59.6279 44.5901C57.8422 56.3054 46.8584 64.3836 35.1432 62.598C23.428 60.8123 15.3495 49.8287 17.1352 38.1133C17.725 34.2433 19.3344 30.6533 21.808 27.6647L22.6829 28.823C22.8117 28.9934 22.8482 29.2163 22.7808 29.4189L20.8353 35.2678C20.5362 36.1672 20.769 37.1397 21.4431 37.8059C21.8239 38.1824 22.3008 38.4169 22.8054 38.4939C23.1938 38.5531 23.5984 38.5188 23.9881 38.3843L29.814 36.3708C30.0158 36.3011 30.2391 36.335 30.411 36.4618L35.3724 40.1195C36.1353 40.6819 37.1324 40.761 37.9741 40.3258C38.8161 39.8907 39.328 39.0315 39.3104 38.084L39.1958 31.9211C39.1918 31.7076 39.2932 31.5058 39.4668 31.3813L44.4788 27.793C45.2493 27.2413 45.6326 26.3177 45.4787 25.3825C45.3251 24.4474 44.6665 23.6947 43.7597 23.4187L37.8629 21.6233C37.6586 21.5612 37.4981 21.4024 37.4333 21.1988L37.0217 19.9014C38.55 19.8064 40.0921 19.8727 41.6196 20.1056C42.1171 20.1814 42.5821 19.8395 42.6579 19.3419C42.7338 18.8443 42.3918 18.3794 41.8942 18.3035C40.0871 18.0281 38.2605 17.9654 36.4545 18.1134L35.5693 15.3233C35.2831 14.4199 34.523 13.77 33.586 13.6271C32.6491 13.4843 31.7299 13.8784 31.1872 14.6553L27.6575 19.7086C27.5351 19.8838 27.3346 19.9874 27.1209 19.9859L20.957 19.9432C20.0093 19.9366 19.1564 20.4586 18.731 21.3056C18.3057 22.1525 18.3963 23.1485 18.9676 23.9047L20.6814 26.1737C17.8396 29.4805 15.9948 33.4975 15.3331 37.8386C13.396 50.5476 22.1594 62.463 34.8684 64.4001C47.5774 66.3372 59.4927 57.5738 61.4298 44.8648C61.6736 43.2655 61.7508 41.6434 61.6621 40.0411L61.6106 37.2641C61.61 37.2311 61.6257 37.1998 61.6524 37.1805L64.9019 34.8542ZM20.4221 22.8059C20.2027 22.5153 20.3055 22.2319 20.3601 22.1235C20.4144 22.015 20.5804 21.7633 20.9445 21.7658L27.1083 21.8087C27.922 21.8145 28.6861 21.4196 29.1518 20.7524L32.6816 15.6992C32.8901 15.4006 33.1915 15.411 33.3114 15.4293C33.4314 15.4476 33.722 15.5275 33.8321 15.8746L35.6961 21.75C35.9422 22.5256 36.5538 23.1302 37.3322 23.3671L43.2289 25.1624C43.5773 25.2685 43.6606 25.5584 43.6804 25.6781C43.7002 25.7977 43.7138 26.099 43.4177 26.3109L38.4059 29.8993C37.7444 30.373 37.3584 31.1414 37.3735 31.955L37.4882 38.1178C37.495 38.4819 37.245 38.6507 37.1373 38.7063C37.0296 38.7619 36.7473 38.8681 36.4542 38.6521L31.4928 34.9944C31.1653 34.7528 30.7891 34.5998 30.3985 34.5403C30.0081 34.4808 29.6031 34.5148 29.2187 34.6477L23.3928 36.6612C23.0488 36.7802 22.8109 36.5947 22.7246 36.5094C22.6383 36.4242 22.4501 36.1885 22.565 35.8431L24.5106 29.9941C24.7674 29.2219 24.6279 28.3734 24.1375 27.7241L20.4221 22.8059ZM60.5914 35.6986C60.0769 36.067 59.7764 36.6649 59.7882 37.2979L59.837 39.9214C59.8352 39.9559 59.8348 39.9908 59.8369 40.026C59.8384 40.0495 59.8389 40.0731 59.8403 40.0967L59.8625 41.2935C59.8628 41.3137 59.8636 41.3557 59.8084 41.3844C59.7533 41.413 59.719 41.3879 59.7029 41.376L56.4862 39.0046C56.2314 38.8168 55.9388 38.6978 55.6349 38.6514C55.3311 38.6051 55.0161 38.6316 54.7171 38.735L50.9399 40.0405C50.9208 40.0472 50.8808 40.0607 50.8367 40.0171C50.7925 39.9733 50.8058 39.9333 50.8121 39.9141L52.0737 36.1219C52.2734 35.5212 52.1648 34.8611 51.7833 34.356L49.3745 31.1671C49.3623 31.151 49.3369 31.1174 49.3649 31.0616C49.3929 31.0059 49.4349 31.0062 49.4551 31.0063L53.4514 31.0341C54.0844 31.0385 54.6787 30.7313 55.0414 30.2123L56.6477 27.9127C56.6521 27.9064 56.6566 27.9003 56.6607 27.894L57.3297 26.9361C57.3413 26.9196 57.3654 26.8851 57.4271 26.8945C57.4888 26.9039 57.5014 26.944 57.5075 26.9632L58.716 30.7725C58.9077 31.3759 59.3834 31.8462 59.9889 32.0305L63.812 33.1946C63.8313 33.2005 63.8717 33.2128 63.8817 33.2743C63.8918 33.3358 63.8576 33.3602 63.8411 33.3721L60.5914 35.6986Z" fill="#70DCF1"/>
<path d="M51.734 48.5269C51.5907 48.3321 51.3761 48.2023 51.1371 48.1659L33.2073 45.433C32.7099 45.3571 32.245 45.6991 32.1692 46.1967C31.34 51.6367 35.0912 56.7371 40.5313 57.5663C45.9714 58.3955 51.0717 54.6443 51.9009 49.2042C51.9372 48.9653 51.8772 48.7216 51.734 48.5269ZM40.8058 55.7642C36.6638 55.1329 33.7197 51.4723 33.8837 47.3799L49.9114 49.8228C48.8489 53.7783 44.9478 56.3956 40.8058 55.7642Z" fill="#70DCF1"/>
<path d="M45.891 21.2236C46.3886 21.2994 46.8535 20.9575 46.9294 20.4599C47.0052 19.9623 46.6633 19.4974 46.1657 19.4215C45.668 19.3457 45.2032 19.6876 45.1273 20.1852C45.0515 20.6828 45.3934 21.1477 45.891 21.2236Z" fill="#70DCF1"/>
</g>
<defs>
<clipPath id="clip0">
<rect width="50" height="50" fill="white" transform="translate(18.9268 11.3927) rotate(8.66645)"/>
</clipPath>
</defs>
</svg>
