<svg width="80" height="80" viewBox="0 0 80 80" fill="none" xmlns="http://www.w3.org/2000/svg">
<circle cx="39.6817" cy="39.6817" r="35" transform="rotate(-8.29186 39.6817 39.6817)" fill="#70DCF1" fill-opacity="0.21"/>
<g clip-path="url(#clip0)">
<path d="M26.6437 21.7083C26.4148 21.7759 26.2206 21.9099 26.0798 22.0876C25.8943 21.9575 25.6698 21.8845 25.4312 21.885L24.0192 21.8878L23.2217 20.7409C22.6933 19.9805 21.5188 20.1521 21.2292 21.0312L20.7923 22.3581L19.4381 22.7584C18.3143 23.1155 18.3711 24.1286 19.099 24.7398L20.2354 25.5552L20.1979 26.9441C20.2717 28.2927 20.9968 28.3033 21.9796 27.8795L23.1245 27.0547L24.4572 27.5184C25.2348 27.789 26.2002 27.0367 25.8978 26.1134L25.4655 24.793L26.3144 23.6969L27.4408 24.5051L27.4032 25.894C27.3771 26.8651 28.5169 27.3107 29.1849 26.8294L30.3299 26.0046L31.6626 26.4683C32.7394 26.7786 33.3887 26.0938 33.1032 25.0633L32.6708 23.7429L33.5197 22.6468L34.6461 23.455L34.6086 24.8439C34.5825 25.815 35.7223 26.2606 36.3903 25.7793L37.5353 24.9546L38.8679 25.4182C39.9374 25.7068 40.6918 25.1202 40.3085 24.0132L39.8762 22.6928L40.7252 21.5967L41.8516 22.4049L41.814 23.7938C41.7879 24.7649 42.9277 25.2105 43.5957 24.7291L44.7407 23.9044L46.0734 24.3681C47.2459 24.619 47.7978 24.0392 47.514 22.9631L47.0816 21.6427L47.9306 20.5466L49.0569 21.3548L49.0194 22.7437C48.9933 23.7148 50.1331 24.1604 50.8011 23.679L51.946 22.8543L53.2787 23.318C54.3687 23.649 55.0467 23.0055 54.7193 21.913L54.287 20.5926L55.1435 19.4867C55.7712 18.6326 55.4097 17.7092 54.2528 17.6845L52.8407 17.6874L52.0433 16.5404C51.411 15.659 50.4052 15.7537 50.0508 16.8308L49.6138 18.1577L48.2598 18.558C48.031 18.6256 47.8367 18.7596 47.696 18.9373C47.5105 18.8072 47.2859 18.7342 47.0473 18.7347L45.6353 18.7375L44.8378 17.5905C44.2796 16.721 43.2 16.8041 42.8454 17.8809L42.4084 19.2078L41.0543 19.6081C40.8255 19.6757 40.6311 19.8098 40.4905 19.9873C40.3049 19.8573 40.0804 19.7842 39.8418 19.7848L38.4299 19.7876L37.6324 18.6406C37.0019 17.7136 35.9945 17.8541 35.6399 18.931L35.203 20.2579L33.8489 20.6582C33.6201 20.7259 33.4258 20.8599 33.2851 21.0374C33.0996 20.9073 32.875 20.8343 32.6364 20.8349L31.2246 20.8377L30.4272 19.6907C29.8231 18.7598 28.7894 18.9042 28.4347 19.9811L27.9978 21.308L26.6437 21.7083ZM24.3254 24.0642C24.0979 24.3577 24.031 24.7434 24.1464 25.0954L24.4745 26.0976L23.4593 25.7443C23.286 25.6841 23.1031 25.6679 22.9263 25.6937C22.7494 25.7194 22.5786 25.7872 22.4295 25.8944L21.5574 26.5226L21.5859 25.4686C21.596 25.0982 21.4218 24.7477 21.12 24.5313L20.2664 23.9188L21.2857 23.6174C21.6398 23.5128 21.92 23.2417 22.0353 22.892L22.3697 21.8763L22.9801 22.7541C23.1901 23.0564 23.5361 23.2363 23.9054 23.2356L24.9686 23.2336L24.3254 24.0642ZM50.1077 19.417C50.4619 19.3123 50.7421 19.0411 50.8571 18.6916L51.1915 17.6759L51.8021 18.5541C52.0123 18.8562 52.3582 19.036 52.7273 19.0352L53.7904 19.0331L53.1471 19.8637C52.9196 20.1573 52.8527 20.5429 52.9681 20.8949L53.2962 21.897L52.2809 21.5437C51.934 21.4232 51.5491 21.4795 51.2512 21.694L50.3792 22.3222L50.4077 21.2683C50.4178 20.8978 50.2436 20.5473 49.9418 20.331L49.0882 19.7185L50.1077 19.417ZM42.9021 20.4672C43.2562 20.3625 43.5364 20.0914 43.6517 19.7417L43.9861 18.726L44.5966 19.6042C44.8068 19.9063 45.1527 20.0861 45.5218 20.0854L46.5849 20.0833L45.9415 20.9141C45.7142 21.2075 45.6474 21.5928 45.7626 21.945L46.0908 22.9471L45.0756 22.5939C44.7287 22.4733 44.3438 22.5295 44.0458 22.7441L43.1737 23.3723L43.2023 22.318C43.2121 21.9477 43.0381 21.5975 42.7364 21.3811L41.8828 20.7685L42.9021 20.4672ZM35.6968 21.5173C36.051 21.4125 36.3312 21.1413 36.4462 20.7918L36.7806 19.776L37.391 20.654C37.601 20.9563 37.947 21.1362 38.3163 21.1355L39.3795 21.1334L38.7362 21.964C38.5087 22.2575 38.4418 22.6432 38.5572 22.9951L38.8853 23.9974L37.8701 23.644C37.5233 23.5236 37.1384 23.5795 36.8404 23.7942L35.9683 24.4225L35.9968 23.3685C36.0069 22.998 35.8327 22.6475 35.5309 22.4312L34.6773 21.8187L35.6968 21.5173ZM29.2408 21.8419L29.5752 20.8262L30.1857 21.7044C30.3959 22.0065 30.7418 22.1864 31.1109 22.1856L32.174 22.1835L31.5306 23.0143C31.3033 23.3077 31.2366 23.6931 31.3517 24.0453L31.6799 25.0474L30.6647 24.6941C30.4913 24.6339 30.3084 24.6178 30.1316 24.6436C29.9547 24.6693 29.7839 24.7371 29.6349 24.8443L28.7628 25.4725L28.7914 24.4182C28.8012 24.0479 28.6272 23.6977 28.3255 23.4813L27.4719 22.8688L28.4912 22.5674C28.8454 22.4627 29.1255 22.1917 29.2408 21.8419Z" fill="#70DCF1"/>
<path d="M38.2105 33.4879C38.3611 33.6571 38.5867 33.7393 38.811 33.7066C39.0352 33.674 39.228 33.5307 39.3241 33.3256L41.6381 28.3843L48.4346 27.3938C48.8029 27.3401 49.0579 26.9982 49.0042 26.6298C48.9505 26.2615 48.6086 26.0066 48.2402 26.0602L41.0845 27.1031C40.8604 27.1358 40.6676 27.279 40.5714 27.4841L38.5371 31.8281L35.3475 28.2455C35.1969 28.0763 34.9713 27.994 34.747 28.0267L18.8647 30.3414C18.3796 30.4121 17.9284 30.0823 17.859 29.6061L16.4656 20.0449C16.3962 19.5688 16.7344 19.1238 17.2195 19.0531L27.2756 17.5876C27.6439 17.5339 27.8989 17.1919 27.8452 16.8236C27.7915 16.4553 27.4496 16.2003 27.0812 16.254L17.0252 17.7196C15.8048 17.8974 14.9555 19.0277 15.1321 20.2392L16.5255 29.8004C16.7021 31.0119 17.8386 31.8528 19.0591 31.675L34.5824 29.4126L38.2105 33.4879Z" fill="#70DCF1"/>
<path d="M55.1275 12.1665L30.4153 15.7681C30.047 15.8217 29.792 16.1637 29.8457 16.532C29.8994 16.9004 30.2413 17.1553 30.6097 17.1016L55.3218 13.5001C55.8069 13.4294 56.2581 13.7592 56.3275 14.2354L57.7209 23.7966C57.7903 24.2727 57.4521 24.7177 56.967 24.7884L51.5742 25.5743C51.2059 25.628 50.951 25.9699 51.0046 26.3383C51.0583 26.7066 51.4003 26.9616 51.7686 26.9079L57.1613 26.122C58.3818 25.9441 59.2311 24.8138 59.0545 23.6023L57.661 14.0411C57.4844 12.8296 56.3479 11.9887 55.1275 12.1665V12.1665Z" fill="#70DCF1"/>
<path d="M55.2471 44.4614C55.06 43.1778 53.8635 42.2857 52.5798 42.4727L45.897 43.4467C46.2205 41.1728 45.8075 38.9076 44.6236 36.3983C44.2179 35.5387 43.3101 35.0537 42.3648 35.1915C41.0317 35.5268 40.4302 36.3788 40.5605 37.7473C41.1412 40.6624 39.9238 41.8809 38.239 43.5672C37.735 44.0717 37.1896 44.6179 36.6586 45.2505C36.531 45.0005 36.2549 44.8473 35.9617 44.89L33.4559 45.2552L33.3109 44.2605C33.2572 43.8921 32.9152 43.6372 32.5469 43.6909L26.2125 44.614C25.8442 44.6677 25.5892 45.0097 25.6429 45.378L26.827 53.5028C26.8807 53.8711 27.2226 54.126 27.591 54.0724C27.9593 54.0187 28.2143 53.6767 28.1606 53.3084L27.0737 45.8504L32.0745 45.1216L34.2905 60.3273L29.2897 61.0561L28.6465 56.6423C28.5928 56.274 28.2508 56.0191 27.8825 56.0727C27.5142 56.1264 27.2592 56.4684 27.3129 56.8367L28.0533 61.9173C28.107 62.2856 28.449 62.5406 28.8173 62.4869L35.1517 61.5637C35.52 61.51 35.775 61.1681 35.7213 60.7997L35.5876 59.8823L38.0936 59.5171C38.4619 59.4634 38.7169 59.1215 38.6632 58.7531L38.5692 58.1083C39.418 58.0817 40.0741 58.1804 40.7465 58.5559C41.2725 58.8497 41.8857 58.9644 42.4731 58.8788L52.9229 57.3559C54.7655 57.0874 55.5931 54.7758 54.2874 53.407C55.29 52.5604 55.3784 50.8784 54.4297 49.9387C55.3681 49.0765 55.422 47.456 54.5019 46.5402C55.0596 46.0312 55.3639 45.2633 55.2471 44.4614ZM37.2324 58.2807L35.3932 58.5488L33.6502 46.5888L35.4894 46.3208L37.13 57.5782L37.2324 58.2807ZM53.0641 45.7949L50.9977 46.0961C50.6293 46.1498 50.3744 46.4917 50.428 46.8601C50.4817 47.2284 50.8237 47.4833 51.192 47.4297L52.696 47.2105C53.2443 47.1306 53.7554 47.5117 53.8353 48.06C53.9152 48.6082 53.5341 49.1194 52.9859 49.1993L51.4819 49.4185C51.1135 49.4722 50.8586 49.8141 50.9122 50.1824C50.9659 50.5508 51.3079 50.8057 51.6762 50.7521L52.6279 50.6133C53.1762 50.5334 53.6874 50.9145 53.7673 51.4627C53.8472 52.011 53.4661 52.5222 52.9178 52.6021L51.4138 52.8213C51.0454 52.8749 50.7905 53.2169 50.8442 53.5852C50.8978 53.9536 51.2398 54.2085 51.6081 54.1548L52.4388 54.0338C52.987 53.9539 53.4981 54.335 53.578 54.8833C53.6579 55.4315 53.2769 55.9426 52.7286 56.0225L42.2787 57.5455C41.9831 57.5885 41.6724 57.5297 41.4037 57.3795C40.3661 56.8 39.3465 56.7211 38.3735 56.7662L36.9612 47.0758C37.6502 46.0633 38.4333 45.2794 39.1923 44.5198C40.9467 42.764 42.6037 41.1055 41.8823 37.4841C41.8333 36.9707 42.059 36.6509 42.5591 36.525C42.9085 36.4741 43.2563 36.6585 43.4048 36.9734C44.6179 39.5447 44.9359 41.8082 44.4055 44.0972C44.3553 44.3141 44.4154 44.5418 44.5661 44.7056C44.7168 44.8695 44.9389 44.9482 45.1591 44.9161L52.7742 43.8063C53.3224 43.7264 53.8336 44.1075 53.9135 44.6558C53.9934 45.2041 53.6124 45.715 53.0641 45.7949Z" fill="#70DCF1"/>
<path d="M30.1535 49.4478C29.731 49.5094 29.3385 49.2167 29.2769 48.7942C29.2153 48.3716 29.508 47.9791 29.9305 47.9175C30.3531 47.856 30.7456 48.1486 30.8071 48.5712C30.8687 48.9937 30.5761 49.3862 30.1535 49.4478Z" fill="#70DCF1"/>
</g>
<defs>
<clipPath id="clip0">
<rect width="46" height="46" fill="white" transform="translate(13.3168 18.26) rotate(-8.29186)"/>
</clipPath>
</defs>
</svg>
