<svg width="88" height="88" viewBox="0 0 88 88" fill="none" xmlns="http://www.w3.org/2000/svg">
<circle cx="43.9576" cy="43.9576" r="35" transform="rotate(15.9349 43.9576 43.9576)" fill="#70DCF1" fill-opacity="0.21"/>
<g clip-path="url(#clip0)">
<path d="M53.2733 40.4491L46.0536 59.498C45.7305 60.3508 47.015 60.8467 47.3412 59.986L54.5609 40.9371C54.6957 40.5816 54.5166 40.1842 54.1611 40.0493C53.8052 39.9145 53.408 40.0935 53.2733 40.4491Z" fill="#70DCF1"/>
<path d="M38.3175 35.5257C37.9444 35.4525 37.5826 35.6956 37.5092 36.0686L33.583 56.0578C33.4054 56.962 34.7583 57.2181 34.9341 56.3232L38.8604 36.334C38.9338 35.9609 38.6904 35.5992 38.3175 35.5257Z" fill="#70DCF1"/>
<path d="M45.389 38.2582L39.816 57.7773C39.7116 58.1429 39.9233 58.5239 40.289 58.6283C40.6547 58.7327 41.0356 58.5209 41.14 58.1553L46.713 38.6362C46.8174 38.2706 46.6057 37.8896 46.24 37.7852C45.8743 37.6808 45.4934 37.8926 45.389 38.2582Z" fill="#70DCF1"/>
<path d="M66.2829 30.9032L55.8725 27.9309L56.5369 25.604C56.9756 24.0674 56.0824 22.4603 54.5457 22.0215L47.5093 20.0125C45.9727 19.5738 44.3656 20.467 43.9269 22.0036L43.2625 24.3305L32.8521 21.3582C31.1684 20.8774 29.4074 21.8562 28.9267 23.5399C28.4459 25.2236 29.4247 26.9846 31.1084 27.4654L31.8205 27.6687L25.9158 57.731C25.391 60.4029 26.9989 63.0347 29.6212 63.7834L46.6267 68.6387C49.2449 69.3863 52.0026 68.0053 52.9691 65.4552L54.4745 61.4834C54.6092 61.1279 54.4302 60.7304 54.0747 60.5956C53.7184 60.46 53.3217 60.6398 53.1869 60.9954L51.6815 64.9672C50.9753 66.8307 48.921 67.8618 47.0047 67.3147L29.9993 62.4593C28.083 61.9122 26.8828 59.9519 27.2669 57.9964L33.1492 28.048L35.1093 28.6077C35.475 28.7121 35.856 28.5003 35.9604 28.1347C36.0647 27.7691 35.8531 27.388 35.4874 27.2836C34.0372 26.8696 32.3271 26.3813 31.4865 26.1413C30.5328 25.869 29.9784 24.8716 30.2507 23.9179C30.523 22.9643 31.5204 22.4099 32.4741 22.6822L65.9048 32.2272C66.8586 32.4995 67.4129 33.4969 67.1407 34.4506C66.8684 35.4043 65.871 35.9586 64.9172 35.6863C63.889 35.3927 40.8075 28.8026 38.5841 28.1678C38.2184 28.0634 37.8375 28.2752 37.7331 28.6408C37.6287 29.0064 37.8404 29.3874 38.2061 29.4918L62.4985 36.4277L54.3293 57.9812C54.1946 58.3367 54.3736 58.7341 54.7291 58.869C54.7477 58.876 54.7662 58.8821 54.7849 58.8875C55.1253 58.9847 55.4893 58.8063 55.617 58.4692L63.8273 36.8071L64.5393 37.0104C66.223 37.4911 67.9841 36.5124 68.4648 34.8287C68.9455 33.1449 67.9666 31.3839 66.2829 30.9032ZM54.5485 27.5528L44.5866 24.7085L45.2509 22.3817C45.4812 21.5751 46.3248 21.1063 47.1313 21.3366L54.1677 23.3456C54.9743 23.5759 55.443 24.4194 55.2128 25.2259L54.5485 27.5528Z" fill="#70DCF1"/>
</g>
<defs>
<clipPath id="clip0">
<rect width="47" height="47" fill="white" transform="translate(28.4305 14.5653) rotate(15.9349)"/>
</clipPath>
</defs>
</svg>
