<svg width="364" height="125" viewBox="0 0 364 125" fill="none" xmlns="http://www.w3.org/2000/svg">
<g clip-path="url(#clip0)">
<path d="M-0.229004 45V105C-0.229004 116.032 6.36512 125 14.4637 125H120.252C128.356 125 134.944 116.032 134.944 105V45H-0.229004Z" fill="white"/>
<path d="M29.3316 23.0003L19.9283 39.9169H42.9844L52.3876 23.0003H29.3316Z" fill="white"/>
<path d="M58.7174 23.0003L49.3141 39.9169H72.3698L81.7733 23.0003H58.7174Z" fill="white"/>
<path d="M131.952 23.0003H117.489L108.085 39.921H134.891V25.1153C134.89 23.9436 133.58 23.0003 131.952 23.0003Z" fill="white"/>
<path d="M88.1029 23.0003L78.6993 39.9169H101.75L111.159 23.0003H88.1029Z" fill="white"/>
<path d="M13 40L22.7167 23L-0.5 23L-0.499959 40H13Z" fill="white"/>
<path d="M65.41 0.547552L43.1622 0.841248L58.5 20.5L82 20.5L65.41 0.547552Z" fill="white"/>
<path d="M36.9786 0.923689L13.0013 1.23614L29.2956 20.5L52.5 20.5L36.9786 0.923689Z" fill="white"/>
<path d="M134.847 18.2349L131.594 5.3937C130.867 2.2798 126.447 -0.234077 121.736 -0.198952L101.759 0.0672321L117.5 20.2494L132.351 20.2494C133.141 20.2448 133.848 20.0252 134.317 19.6459C134.786 19.2665 134.975 18.7593 134.847 18.2349Z" fill="white"/>
<path d="M95.5706 0.148786L71.7236 0.464183L88.0001 20.3906L111 20.3906L95.5706 0.148786Z" fill="white"/>
<path d="M1.49999 1.99999C3.99995 0.499998 7.5 1 7.5 1L22.7657 20.5L-0.526309 20.5L-0.499935 9.49999C-0.499935 9.49999 -0.999963 3.49999 1.49999 1.99999Z" fill="white"/>
<path d="M86.4621 70.358C89.4157 67.0919 99.1508 59.172 102.222 55.7284C103.059 54.7888 103.409 51.683 102.499 50.6824C102.452 50.6312 102.401 50.5837 102.346 50.5403C101.268 49.6951 100.02 49.6549 99.0079 50.4324C95.2978 53.2834 82.5427 63.2207 79.0265 65.9607L77.7334 64.7605L86.8837 56.2661C87.2521 55.9242 87.3621 55.41 87.1628 54.9634C86.9636 54.5166 86.4938 54.2254 85.973 54.2254C71.3703 54.2254 57.6418 59.5042 47.3161 69.0896C36.9904 78.6751 31.3038 91.4193 31.3038 104.975C31.3038 106.819 31.4113 108.661 31.6241 110.489C31.6251 110.501 31.6265 110.512 31.6278 110.524C31.8457 112.383 32.1727 114.227 32.6076 116.042C32.741 116.599 33.4878 117.661 34.0781 117.661C34.1706 117.661 34.242 117.661 34.4557 117.661C35.1501 117.517 36.1862 116.687 36.0317 116.042C35.7228 114.753 35.7006 113.123 35.5064 111.809C41.4206 112.1 44.0549 115.316 48.6393 117.661C55.3499 121.092 63.9349 124 81.2597 124C81.9711 124 82.5475 123.465 82.5475 122.805C84.3608 116.978 82.2044 112.228 78.895 107.907C76.0905 104.246 70.4076 100.85 69.3043 95.5051C69.1706 94.8567 68.4958 94.4314 67.7973 94.5559C67.0988 94.6803 66.641 95.3065 66.7748 95.9551C67.9838 101.811 71.1869 105.993 74.013 109.682C76.9643 113.535 79.5444 116.903 79.9242 121.601C64.1805 121.396 56.7197 117.581 50.1156 114.204C45.3427 111.764 40.8187 109.453 34.0781 109.211C33.9466 107.804 35.5064 106.884 35.5064 105.469C35.5064 79.8033 55.5289 58.2493 82.7662 56.707L75.0012 63.9152C74.4983 64.3821 74.4983 65.139 75.0012 65.6057L79.3989 69.6882C79.902 70.155 80.7173 70.155 81.2202 69.6882C81.7231 69.2213 81.7231 68.4643 81.2202 67.9976L80.8541 67.6578C84.557 64.7723 96.757 55.2683 100.538 52.3601C96.8478 56.4953 82.9039 70.6935 82.7662 70.8457C82.3366 71.3205 82.7592 72.8075 83.2314 73.2459L99.1382 88.0121C99.7658 88.5949 100.112 89.3697 100.112 90.1938C100.112 91.0178 99.7658 91.7927 99.1382 92.3754C97.842 93.5785 95.7338 93.5782 94.4376 92.3754C94.2669 92.2168 94.0516 92.1062 93.8164 92.0558L79.0167 88.8897C78.7143 88.8252 78.3968 88.8639 78.1225 88.9994C73.2301 91.4166 67.3069 90.5943 63.3841 86.9529C59.4095 83.2632 58.5703 77.5218 61.3437 72.9909C61.6952 72.4167 61.4787 71.687 60.8604 71.3607C60.2421 71.0344 59.4558 71.2356 59.1045 71.8096C55.76 77.273 56.7712 84.1956 61.5628 88.6435C63.8965 90.8097 67.9687 92.3617 71.2279 92.7901C74.2154 93.1826 75.8858 93.0409 78.5823 91.8148L93.2912 95.2284C94.3997 96.1309 96.1048 96.6914 97.4937 96.6914C99.0045 96.6914 100.546 95.8082 101.696 94.7408C102.81 93.7064 103.272 91.6565 103.272 90.1938C103.272 88.731 102.074 87.3557 100.959 86.3216L86.4621 70.358Z" fill="#70DCF1"/>
<path d="M82.2595 69.3827C85.2131 66.1165 95.1081 53.3231 98.1789 49.8795C99.0167 48.9399 99.0696 49.3889 99.0696 47.9259C99.0696 47.5933 98.8137 46.7422 98.5443 46.531C97.4661 45.6857 95.5834 45.7534 94.5717 46.531C90.8617 49.3819 78.1065 59.3193 74.5903 62.0593L73.2972 60.859L84.886 52.8056C85.2543 52.4637 83.5094 50.3232 83.3101 49.8765C83.3101 49.8765 81.9721 48.4587 81.4514 48.4587C66.8487 48.4587 51.0851 54.5108 40.7594 64.0962C30.4338 73.6816 26.8677 87.5179 26.8677 101.074C26.8677 102.918 26.9752 104.76 27.1879 106.587C27.1889 106.599 27.1903 106.611 27.1917 106.622C27.4096 108.482 27.7365 110.325 28.1714 112.141C28.3049 112.698 28.837 113.077 29.4273 113.077C29.5198 113.077 29.6139 113.068 29.708 113.048C30.4024 112.905 30.8401 112.266 30.6856 111.622C30.3767 110.333 30.1249 109.029 29.9307 107.715C35.845 108.006 39.8522 110.053 44.4366 112.397C51.1472 115.828 59.4988 120.099 76.8235 120.099C77.5349 120.099 78.1113 119.563 78.1113 118.903C78.1113 112.797 74.9853 108.716 71.6758 104.395C68.8713 100.734 65.9714 96.9484 64.8682 91.6037C64.7344 90.9553 64.0596 90.53 63.3611 90.6545C62.6626 90.7788 62.1637 92.1415 62.2974 92.7901C63.5064 98.6462 64.1992 102.267 67.0253 105.957C69.9766 109.81 73.4746 112.963 73.8544 117.66C58.1107 117.456 52.6168 112.26 46.0126 108.883C41.2397 106.442 36.3826 105.551 29.6419 105.309C29.5104 103.903 29.4431 102.489 29.4431 101.074C29.4431 75.4078 51.0928 54.3479 78.3301 52.8056L70.565 60.0137C70.0621 60.4806 70.1996 62.0888 70.7025 62.5556L74.3797 65.9691C74.8828 66.436 76.2811 66.2536 76.784 65.7867C77.287 65.3199 77.287 64.5629 76.784 64.0962L76.418 63.7563C80.1208 60.8708 93.7127 51.3669 97.4936 48.4587C93.8035 52.5939 79.7706 68.2552 79.6329 68.4074C79.2033 68.8822 78.11 69.9197 78.5822 70.358L93.8164 84.5C94.444 85.0827 95.3924 85.6265 95.3924 86.4506C95.3924 87.2747 95.3296 87.8912 94.702 88.4739C93.4058 89.6771 91.2976 89.6767 90.0014 88.4739C89.8308 88.3153 89.6154 88.2047 89.3802 88.1544L74.5806 84.9883C74.2782 84.9237 73.9607 84.9625 73.6863 85.098C68.7939 87.5152 62.8707 86.6929 58.948 83.0515C54.9733 79.3618 54.1342 73.6204 56.9076 69.0894C57.2591 68.5153 57.0425 67.7855 56.4242 67.4593C55.8059 67.133 55.0197 67.3341 54.6684 67.9081C51.3239 73.3716 52.3351 80.2941 57.1267 84.742C59.4603 86.9082 62.4164 88.2796 65.6756 88.7081C68.6631 89.1005 71.7623 88.6421 74.4588 87.416L88.465 90.4122C89.5735 91.3147 90.9626 91.7659 92.3516 91.7659C93.8624 91.7659 95.3731 91.2321 96.5232 90.1646C97.6374 89.1303 98.251 87.7551 98.251 86.2923C98.251 84.8295 97.6374 83.4543 96.5232 82.4201L82.2595 69.3827Z" fill="#C978E9"/>
<path d="M83.7862 70.3794C86.7399 67.1132 97.443 55.274 100.514 51.8304C101.352 50.8907 101.308 49.7324 100.397 48.7317C100.351 48.6806 100.3 48.6331 100.244 48.5897C99.1662 47.7444 97.9182 47.7043 96.9066 48.4818C93.1965 51.3327 80.4414 61.2701 76.9252 64.0101L75.6321 62.8098L84.7824 54.3155C85.1507 53.9736 85.2608 53.4594 85.0614 53.0128C84.8623 52.566 84.3925 52.2748 83.8717 52.2748C69.269 52.2748 55.5404 57.5536 45.2148 67.139C34.8891 76.7244 29.2025 89.4687 29.2025 103.024C29.2025 104.869 29.31 106.711 29.5227 108.538C29.5238 108.55 29.5251 108.562 29.5265 108.573C29.7444 110.432 30.0713 112.276 30.5063 114.092C30.6397 114.649 31.1718 115.028 31.7621 115.028C31.8547 115.028 31.9488 115.018 32.0429 114.999C32.7372 114.856 33.1749 114.217 33.0204 113.572C32.7115 112.284 32.4598 110.979 32.2656 109.666C38.1798 109.957 42.1871 112.004 46.7714 114.348C53.482 117.779 61.8336 122.049 79.1584 122.049C79.8698 122.049 80.4462 121.514 80.4462 120.854C80.4462 114.748 77.3201 110.667 74.0106 106.346C71.2062 102.685 68.3062 98.8992 67.203 93.5545C67.0693 92.9061 66.3945 92.4808 65.696 92.6053C64.9975 92.7296 64.5397 93.3559 64.6735 94.0045C65.8824 99.8605 69.0856 104.042 71.9117 107.732C74.863 111.585 77.443 114.953 77.8228 119.65C62.0792 119.446 54.6184 115.63 48.0142 112.254C43.2413 109.813 38.7174 107.502 31.9768 107.26C31.8452 105.854 31.7779 104.44 31.7779 103.024C31.7779 77.3587 53.4276 56.2987 80.6649 54.7564L72.8999 61.9646C72.397 62.4314 72.397 63.1884 72.8999 63.6551L77.2976 67.7376C77.8007 68.2044 78.616 68.2044 79.1189 67.7376C79.6218 67.2707 79.6218 66.5137 79.1189 66.047L78.7528 65.7072C82.4556 62.8216 94.6557 53.3177 98.4366 50.4095C94.7465 54.5447 81.1924 69.529 81.0547 69.6812C80.6251 70.1561 80.6579 70.8569 81.1301 71.2953L97.0369 86.0615C97.6645 86.6442 98.0103 87.4191 98.0103 88.2431C98.0103 89.0672 97.6645 89.842 97.0369 90.4248C95.7407 91.6279 93.6325 91.6276 92.3363 90.4248C92.1656 90.2662 91.9503 90.1556 91.715 90.1052L76.9154 86.9391C76.613 86.8746 76.2955 86.9133 76.0211 87.0488C71.1287 89.466 65.2056 88.6437 61.2828 85.0023C57.3081 81.3126 56.469 75.5712 59.2424 71.0402C59.5939 70.4661 59.3774 69.7364 58.7591 69.4101C58.1407 69.0838 57.3545 69.285 57.0032 69.8589C53.6587 75.3224 54.6699 82.2449 59.4615 86.6929C61.7952 88.859 64.7512 90.2305 68.0104 90.6589C70.9979 91.0514 74.0972 90.5929 76.7937 89.3669L90.7998 92.363C91.9084 93.2655 93.2975 93.7168 94.6864 93.7168C96.1972 93.7168 97.7079 93.1829 98.858 92.1155C99.9722 91.0812 100.586 89.7059 100.586 88.2431C100.586 86.7804 99.9722 85.4051 98.858 84.3709L83.7862 70.3794Z" fill="black"/>
</g>
<path d="M151.309 54L139.213 6.896H144.461L154.573 47.024L166.222 6.896H171.341L182.925 47.024L193.038 6.896H198.285L186.189 54H180.686L168.781 14L156.813 54H151.309Z" fill="#C978E9"/>
<path d="M203.163 54V6.896H208.283V28.72H231.835V6.896H236.891V54H231.835V33.264H208.283V54H203.163ZM241.796 54L257.924 6.896H264.452L280.58 54H275.332L270.596 40.56H251.652L247.044 54H241.796ZM252.932 35.952H269.316L261.188 11.376L252.932 35.952ZM292.934 54V11.504H278.342V6.896H312.518V11.504H297.99V54H292.934ZM316.063 20.4C315.551 20.4 315.146 20.3573 314.847 20.272V18.48C315.445 18.48 315.829 18.3307 315.999 18.032C316.213 17.7333 316.319 17.392 316.319 17.008V13.808H315.743C315.018 13.808 314.655 13.4027 314.655 12.592V7.472C314.655 6.61866 315.018 6.192 315.743 6.192H318.815C319.413 6.192 319.711 6.61866 319.711 7.472V16.624C319.711 17.6907 319.498 18.5013 319.071 19.056C318.687 19.568 318.197 19.9307 317.599 20.144C317.045 20.3147 316.533 20.4 316.063 20.4ZM339.266 54.384C337.986 54.384 336.429 54.32 334.594 54.192C332.802 54.1067 331.032 53.9787 329.282 53.808C327.533 53.6373 326.104 53.4453 324.994 53.232V49.328C326.573 49.456 328.664 49.584 331.266 49.712C333.912 49.7973 336.514 49.84 339.074 49.84C340.994 49.84 342.722 49.648 344.258 49.264C345.794 48.88 347.01 48.176 347.906 47.152C348.845 46.128 349.314 44.656 349.314 42.736V39.536C349.314 37.4027 348.738 35.76 347.586 34.608C346.477 33.456 344.706 32.88 342.274 32.88H337.218C333.336 32.88 330.285 32.0267 328.066 30.32C325.89 28.6133 324.802 25.6693 324.802 21.488V18.8C324.802 14.3627 325.997 11.2053 328.386 9.328C330.776 7.45066 334.146 6.512 338.498 6.512C339.821 6.512 341.336 6.59733 343.042 6.768C344.749 6.896 346.413 7.06667 348.034 7.28C349.656 7.45067 351 7.64267 352.066 7.856V11.696C350.146 11.568 348.013 11.44 345.666 11.312C343.32 11.184 341.101 11.12 339.01 11.12C336.109 11.12 333.826 11.6533 332.162 12.72C330.498 13.7867 329.666 15.8773 329.666 18.992V21.168C329.666 23.7707 330.349 25.5627 331.714 26.544C333.08 27.5253 334.978 28.016 337.41 28.016H342.85C346.733 28.016 349.592 29.0613 351.426 31.152C353.261 33.2 354.178 35.8027 354.178 38.96V42.608C354.178 45.7653 353.496 48.1973 352.13 49.904C350.808 51.6107 349.016 52.784 346.754 53.424C344.493 54.064 341.997 54.384 339.266 54.384Z" fill="white"/>
<path d="M152.348 114V65.424H156.638L181.982 104.958V65.424H187.196V114H182.906L157.562 74.466V114H152.348Z" fill="#70DCF1"/>
<path d="M207.763 114.264C206.707 114.264 205.563 114.176 204.331 114C203.143 113.824 202.021 113.428 200.965 112.812C199.953 112.196 199.117 111.25 198.457 109.974C197.797 108.698 197.467 106.982 197.467 104.826V75.192C197.467 72.684 197.929 70.726 198.853 69.318C199.821 67.91 201.031 66.92 202.483 66.348C203.979 65.732 205.497 65.424 207.037 65.424C211.085 65.468 214.737 65.556 217.993 65.688C221.293 65.82 224.417 65.93 227.365 66.018V70.242H208.357C206.641 70.242 205.277 70.704 204.265 71.628C203.253 72.552 202.747 74.026 202.747 76.05V87.534L224.461 87.864V91.89L202.747 92.22V103.638C202.747 105.266 203.011 106.498 203.539 107.334C204.111 108.17 204.837 108.72 205.717 108.984C206.641 109.248 207.609 109.38 208.621 109.38H227.365V113.604C224.285 113.78 221.051 113.912 217.663 114C214.275 114.132 210.975 114.22 207.763 114.264ZM234.619 114L249.733 89.712L234.421 65.424H240.163L253.033 85.752L265.177 65.424H270.919L255.739 90.108L270.787 114H265.045L252.505 94.068L240.361 114H234.619ZM290.326 114V70.176H275.278V65.424H310.522V70.176H295.54V114H290.326ZM323.815 100.866V90.504H327.115C330.679 90.504 333.253 89.976 334.837 88.92C336.421 87.82 337.213 85.818 337.213 82.914V79.02C337.213 75.676 336.487 73.322 335.035 71.958C333.627 70.594 331.361 69.912 328.237 69.912C325.993 69.912 323.881 70.132 321.901 70.572C319.921 70.968 317.809 71.584 315.565 72.42V68.724C317.589 67.536 319.767 66.678 322.099 66.15C324.431 65.578 326.917 65.27 329.557 65.226C334.265 65.182 337.587 66.348 339.523 68.724C341.503 71.1 342.493 74.29 342.493 78.294V82.98C342.493 86.896 341.327 89.822 338.995 91.758C336.707 93.694 332.989 94.662 327.841 94.662V100.866H323.815ZM324.343 114.066C323.639 114.066 323.287 113.714 323.287 113.01V107.73C323.287 107.026 323.639 106.674 324.343 106.674H327.247C327.951 106.674 328.303 107.026 328.303 107.73V113.01C328.303 113.714 327.951 114.066 327.247 114.066H324.343Z" fill="white"/>
<defs>
<clipPath id="clip0">
<rect width="135" height="125" fill="white"/>
</clipPath>
</defs>
</svg>
